<svg width="65" height="21" viewBox="0 0 65 21" fill="none" xmlns="http://www.w3.org/2000/svg">
<path d="M59.5934 2.15069L61.0583 0H57.8955L56.4306 2.15069H49.9919V5.71297H52.036V16.7594H49.9919V20.4681H65.0001V19.5826V16.7594V13.8097H60.6055V16.7594H56.4306V13.4102H59.2738V9.26193H56.4306V5.71297H60.6055V9.01557H65.0001V5.71297V4.31469V2.15069H59.5934Z" fill="#D00018"/>
<path d="M42.0549 2.05739C40.2505 2.05739 38.5659 2.57675 37.141 3.46899V2.15061H36.9412H32.8129H18.7436V3.32916C17.8048 2.70992 13.7098 0.359484 10.0676 3.7553C10.0676 3.7553 6.22567 7.61056 10.0676 11.4125C10.0676 11.4125 12.3981 13.1704 15.4144 13.4567C18.4306 13.743 18.5438 15.7206 18.5438 15.7206C18.5438 15.7206 18.4773 17.2986 16.4331 17.2986C14.389 17.2986 13.0173 14.5021 13.0173 14.5021H9.22198V16.8259H6.51199V5.86604H8.70262V2.15061H0V5.86604H1.99754V16.8259H0V20.5413H12.731V19.6358C13.2237 19.982 14.7352 20.8742 17.3453 20.8742C20.588 20.8742 23.2247 19.0565 23.2247 15.7472C23.2247 12.438 21.6267 11.5723 19.2097 10.507C16.7927 9.44164 12.5712 9.28849 13.3968 6.82486C13.3968 6.82486 15.0015 4.6542 17.3054 6.95137C17.3054 6.95137 17.6583 7.22437 18.5239 8.68923L23.005 8.73584V5.8727H25.6684V16.766H23.6309V20.4814H32.3269V16.766H29.9964V5.86604H32.8129V11.7455H32.8329C33.066 16.6328 37.1077 20.528 42.0549 20.528C47.1553 20.528 51.2902 16.3931 51.2902 11.2927C51.2902 6.19231 47.1553 2.05739 42.0549 2.05739ZM42.0549 16.1667C39.3649 16.1667 37.1809 13.9827 37.1809 11.2927C37.1809 8.60267 39.3649 6.41869 42.0549 6.41869C44.7449 6.41869 46.9289 8.60267 46.9289 11.2927C46.9289 13.9827 44.7449 16.1667 42.0549 16.1667Z" fill="#D00018"/>
</svg>
